<?xml version="1.0" encoding="UTF-8" standalone="no"?>
<svg
   version="1.1"
   id="Layer_1"
   x="0"
   y="0"
   viewBox="0 0 288 73"
   xml:space="preserve"
   sodipodi:docname="logo_tenaris.svg"
   width="288"
   height="73"
   inkscape:version="1.2.2 (b0a8486541, 2022-12-01)"
   inkscape:export-filename="logo_tenaris.png"
   inkscape:export-xdpi="800"
   inkscape:export-ydpi="800"
   xmlns:inkscape="http://www.inkscape.org/namespaces/inkscape"
   xmlns:sodipodi="http://sodipodi.sourceforge.net/DTD/sodipodi-0.dtd"
   xmlns="http://www.w3.org/2000/svg"
   xmlns:svg="http://www.w3.org/2000/svg"><defs
     id="defs19" /><sodipodi:namedview
     id="namedview17"
     pagecolor="#ffffff"
     bordercolor="#000000"
     borderopacity="0.25"
     inkscape:showpageshadow="2"
     inkscape:pageopacity="0.0"
     inkscape:pagecheckerboard="0"
     inkscape:deskcolor="#d1d1d1"
     showgrid="false"
     inkscape:zoom="3.9869395"
     inkscape:cx="115.25131"
     inkscape:cy="51.041657"
     inkscape:window-width="1920"
     inkscape:window-height="1003"
     inkscape:window-x="0"
     inkscape:window-y="40"
     inkscape:window-maximized="1"
     inkscape:current-layer="Layer_1" /><style
     id="style2">.st0{fill:#63656a}</style><g
     id="logotype"
     transform="translate(-12)"><path
       class="st0"
       d="M 110.457,20.144 H 70.996 v 10.752 h 13.92 V 71.373 H 96.535 V 30.896 h 13.922 z"
       id="path4" /><path
       class="st0"
       d="m 132.905,57.456 c -1.377,2.683 -3.48,6.671 -9.567,6.671 -6.017,0 -8.7,-4.712 -8.626,-9.425 h 27.034 c -0.142,-4.274 -0.434,-11.67 -5.362,-16.962 -4.856,-5.217 -11.38,-5.434 -13.628,-5.434 -14.929,0 -19.424,11.74 -19.424,20.874 0,12.395 7.9,19.571 19.136,19.571 6.087,0 11.015,-2.32 14.28,-5.365 1.954,-1.81 3.26,-3.697 4.564,-5.651 z m -18.12,-9.71 c 0.36,-1.595 0.723,-3.335 2.244,-5.003 1.09,-1.16 2.975,-2.464 5.656,-2.464 1.956,0 4.06,0.724 5.436,2.1 1.594,1.668 1.884,3.772 2.1,5.366 h -15.436 m 42.868,-10.801 c 1.09,-1.158 1.813,-2.028 3.77,-2.97 a 18.388,18.388 0 0 1 6.884,-1.38 c 2.25,0 4.786,0.437 6.744,1.523 3.987,2.101 4.999,5.508 4.999,11.38 v 25.876 h -11.088 v -21.31 c 0,-3.408 -0.071,-4.639 -0.507,-5.653 -0.868,-2.03 -2.827,-2.9 -5,-2.9 -5.873,0 -5.873,4.711 -5.873,9.422 V 71.373 H 146.42 V 33.61 h 11.234 v 3.334 m 39.219,7.321 c 0.288,-1.376 0.94,-4.422 5.872,-4.422 3.988,0 4.132,2.9 4.276,4.641 v 2.028 c -4.712,0.87 -11.886,2.176 -14.932,3.48 -3.117,1.306 -7.971,4.781 -7.971,10.873 0,5.292 3.696,11.521 12.394,11.521 5.58,0 8.768,-2.39 11.596,-4.493 v 3.482 h 10.944 c -0.872,-1.306 -1.089,-1.888 -1.089,-5.946 V 43.396 c 0,-9.786 -11.23,-10.873 -15.871,-10.873 -4.425,0 -8.916,0.582 -12.394,3.333 -3.406,2.681 -3.77,5.8 -3.988,8.41 h 11.163 z m 10.148,8.988 c -0.07,3.915 -0.217,7.393 -3.911,9.712 -1.162,0.724 -2.468,1.233 -3.845,1.233 -2.61,0 -4.205,-2.031 -4.205,-3.842 0,-2.9 2.901,-3.985 4.785,-4.71 l 7.176,-2.393 m 28.075,-15.8 c 2.464,-2.103 5.146,-3.772 10.944,-4.35 v 9.857 l -3.697,0.58 c -5.363,0.943 -6.957,1.74 -6.957,6.523 v 21.31 H 224.223 V 33.464 h 10.873 v 3.989 m 15.227,-3.99 h 11.015 v 37.91 h -11.015 z m 0,-13.333 h 11.015 v 8.626 h -11.015 z m 20.467,38.485 c 3.044,2.974 6.815,5.221 11.017,5.221 2.683,0 6.738,-0.87 6.738,-3.699 0,-1.303 -0.795,-1.81 -1.45,-2.173 -1.664,-0.87 -4.272,-1.087 -6.446,-1.448 -1.667,-0.29 -3.409,-0.653 -5.073,-1.162 -2.322,-0.651 -4.642,-1.592 -6.309,-3.259 -1.667,-1.667 -2.828,-4.278 -2.828,-7.107 0,-6.23 5.365,-12.682 15.948,-12.682 8.916,0 14.28,3.841 16.887,5.652 l -6.884,6.38 c -3.555,-2.755 -6.888,-3.77 -9.496,-3.77 -4.352,0 -5.364,1.737 -5.364,2.828 0,2.174 2.391,2.608 6.015,3.259 7.614,1.379 16.455,3.408 16.455,12.397 0,8.915 -8.985,13.264 -17.905,13.264 -10.51,0 -15.946,-5.075 -18.335,-7.32 l 7.03,-6.381"
       id="path6" /></g><g
     id="logo"
     inkscape:export-filename="./logo.png"
     inkscape:export-xdpi="800"
     inkscape:export-ydpi="800"><path
       d="M 0,49.468 H 57.074 V 51.23 H 0 Z M 0,20.144 H 57.074 V 30.898 H 0 Z M 0,3.985 H 57.074 V 6.678 H 0 Z"
       fill="#00974d"
       id="path9" /><path
       d="m 0,44.377 h 57.074 v 2.689 H 0 Z M 0,9.975 h 57.074 v 5.381 H 0 Z"
       fill="#005fa7"
       id="path11" /><path
       d="m 0,35.696 h 57.074 v 5.383 H 0 Z M 0,0 H 57.074 V 1.762 H 0 Z"
       fill="#ca358b"
       id="path13" /></g></svg>
